<svg width="43" height="43" viewBox="0 0 43 43" fill="none" xmlns="http://www.w3.org/2000/svg">
<g clip-path="url(#clip0_1_263)">
<path d="M21.8001 19.2223L20.3575 19.9893C19.8795 20.2435 19.698 20.837 19.9522 21.315C20.2064 21.7931 20.7999 21.9745 21.278 21.7204L21.855 21.4136C22.333 21.1594 22.9266 21.3409 23.1807 21.8189C23.4349 22.2969 23.2534 22.8905 22.7754 23.1446L21.3329 23.9117M20.3392 19.2589L20.646 19.8359M22.4869 23.298L22.7937 23.8751M25.0286 19.7261L25.0344 19.723M18.1043 23.4078L18.1101 23.4048M14.6304 22.4424L16.9621 26.8278C17.3058 27.4741 17.4776 27.7972 17.7346 27.9772C17.9607 28.1356 18.2312 28.2182 18.5071 28.2134C18.8209 28.2079 19.144 28.0361 19.7904 27.6924L27.6379 23.5198C28.2842 23.1762 28.6074 23.0043 28.7874 22.7473C28.9457 22.5212 29.0284 22.2508 29.0236 21.9748C29.0181 21.6611 28.8463 21.3379 28.5026 20.6916L26.1709 16.3062C25.8272 15.6598 25.6554 15.3367 25.3983 15.1567C25.1722 14.9984 24.9018 14.9157 24.6258 14.9205C24.3121 14.926 23.9889 15.0978 23.3426 15.4415L15.495 19.6141C14.8487 19.9578 14.5255 20.1296 14.3456 20.3866C14.1872 20.6127 14.1046 20.8831 14.1094 21.1591C14.1149 21.4729 14.2867 21.796 14.6304 22.4424ZM25.3171 19.5727C25.4019 19.732 25.3414 19.9299 25.182 20.0146C25.0227 20.0993 24.8248 20.0389 24.7401 19.8795C24.6554 19.7202 24.7159 19.5223 24.8752 19.4376C25.0346 19.3529 25.2324 19.4134 25.3171 19.5727ZM18.3928 23.2544C18.4776 23.4138 18.4171 23.6116 18.2577 23.6963C18.0984 23.7811 17.9005 23.7206 17.8158 23.5612C17.7311 23.4019 17.7916 23.204 17.9509 23.1193C18.1103 23.0346 18.3081 23.0951 18.3928 23.2544Z" stroke="#FF5555" stroke-width="1.30704" stroke-linecap="round" stroke-linejoin="round"/>
</g>
<circle cx="21.5666" cy="21.5671" r="15.3578" transform="rotate(-28 21.5666 21.5671)" stroke="#FF5555" stroke-width="0.653521"/>
<defs>
<clipPath id="clip0_1_263">
<rect width="15.6845" height="15.6845" fill="white" transform="translate(10.9604 18.3244) rotate(-28)"/>
</clipPath>
</defs>
</svg>
