<svg width="44" height="43" viewBox="0 0 44 43" fill="none" xmlns="http://www.w3.org/2000/svg">
<g clip-path="url(#clip0_1_270)">
<path d="M23.0609 23.4761C21.1488 24.4928 18.7746 23.7669 17.7579 21.8548L16.0534 18.6491C15.9264 18.4103 15.8629 18.2909 15.8469 18.1768C15.82 17.9855 15.8791 17.7922 16.0084 17.6486C16.0855 17.563 16.2049 17.4995 16.4437 17.3725L21.701 14.5771C21.9398 14.4501 22.0592 14.3867 22.1734 14.3706C22.3647 14.3437 22.558 14.4029 22.7016 14.5321C22.7872 14.6092 22.8507 14.7286 22.9777 14.9674L24.6822 18.1731C25.6989 20.0852 24.973 22.4595 23.0609 23.4761ZM23.0609 23.4761L23.9813 25.2072M23.1481 15.288L24.5907 14.521C24.8596 14.378 24.994 14.3065 25.1234 14.2941C25.2959 14.2775 25.468 14.3301 25.6017 14.4403C25.702 14.523 25.7735 14.6574 25.9165 14.9263L26.0699 15.2148C26.3552 15.7514 26.4979 16.0197 26.5559 16.2712C26.7135 16.9537 26.495 17.6684 25.9827 18.1461C25.7939 18.3222 25.5256 18.4648 24.989 18.7502M16.2238 18.9697L14.7813 19.7367C14.5124 19.8797 14.378 19.9512 14.2953 20.0515C14.1851 20.1852 14.1325 20.3573 14.1491 20.5298C14.1615 20.6592 14.233 20.7936 14.376 21.0625L14.5294 21.351C14.8147 21.8876 14.9573 22.1559 15.1334 22.3447C15.6111 22.857 16.3258 23.0755 17.0083 22.9179C17.2598 22.8599 17.5281 22.7172 18.0647 22.4319M22.5799 28.913L27.8372 26.1176C27.9789 26.0423 28.0326 25.8664 27.9573 25.7248C27.3549 24.5917 25.9479 24.1616 24.8148 24.764L23.1479 25.6504C22.0148 26.2529 21.5846 27.6598 22.1871 28.7929C22.2624 28.9345 22.4383 28.9883 22.5799 28.913Z" stroke="#FF5555" stroke-width="1.30704" stroke-linecap="round" stroke-linejoin="round"/>
</g>
<circle cx="22.1407" cy="21.7454" r="15.3578" transform="rotate(-28 22.1407 21.7454)" stroke="#FF5555" stroke-width="0.653521"/>
<defs>
<clipPath id="clip0_1_270">
<rect width="15.6845" height="15.6845" fill="white" transform="translate(11.5345 18.5025) rotate(-28)"/>
</clipPath>
</defs>
</svg>
